<svg width="30" height="30" viewBox="0 0 30 30" fill="none" xmlns="http://www.w3.org/2000/svg">
<path d="M7.5 7.5C7.5 7.16848 7.6317 6.85054 7.86612 6.61612C8.10054 6.3817 8.41848 6.25 8.75 6.25H21.25C21.5815 6.25 21.8995 6.3817 22.1339 6.61612C22.3683 6.85054 22.5 7.16848 22.5 7.5C22.5 7.83152 22.3683 8.14946 22.1339 8.38388C21.8995 8.6183 21.5815 8.75 21.25 8.75H8.75C8.41848 8.75 8.10054 8.6183 7.86612 8.38388C7.6317 8.14946 7.5 7.83152 7.5 7.5ZM7.5 12.5C7.5 12.1685 7.6317 11.8505 7.86612 11.6161C8.10054 11.3817 8.41848 11.25 8.75 11.25H21.25C21.5815 11.25 21.8995 11.3817 22.1339 11.6161C22.3683 11.8505 22.5 12.1685 22.5 12.5C22.5 12.8315 22.3683 13.1495 22.1339 13.3839C21.8995 13.6183 21.5815 13.75 21.25 13.75H8.75C8.41848 13.75 8.10054 13.6183 7.86612 13.3839C7.6317 13.1495 7.5 12.8315 7.5 12.5ZM8.75 16.25C8.41848 16.25 8.10054 16.3817 7.86612 16.6161C7.6317 16.8505 7.5 17.1685 7.5 17.5C7.5 17.8315 7.6317 18.1495 7.86612 18.3839C8.10054 18.6183 8.41848 18.75 8.75 18.75H21.25C21.5815 18.75 21.8995 18.6183 22.1339 18.3839C22.3683 18.1495 22.5 17.8315 22.5 17.5C22.5 17.1685 22.3683 16.8505 22.1339 16.6161C21.8995 16.3817 21.5815 16.25 21.25 16.25H8.75ZM7.5 22.5C7.5 22.1685 7.6317 21.8505 7.86612 21.6161C8.10054 21.3817 8.41848 21.25 8.75 21.25H13.75C14.0815 21.25 14.3995 21.3817 14.6339 21.6161C14.8683 21.8505 15 22.1685 15 22.5C15 22.8315 14.8683 23.1495 14.6339 23.3839C14.3995 23.6183 14.0815 23.75 13.75 23.75H8.75C8.41848 23.75 8.10054 23.6183 7.86612 23.3839C7.6317 23.1495 7.5 22.8315 7.5 22.5Z" fill="white"/>
<path fill-rule="evenodd" clip-rule="evenodd" d="M2.5 5C2.5 4.00544 2.89509 3.05161 3.59835 2.34835C4.30161 1.64509 5.25544 1.25 6.25 1.25H23.75C24.7446 1.25 25.6984 1.64509 26.4017 2.34835C27.1049 3.05161 27.5 4.00544 27.5 5V25C27.5 25.9946 27.1049 26.9484 26.4017 27.6517C25.6984 28.3549 24.7446 28.75 23.75 28.75H6.25C5.25544 28.75 4.30161 28.3549 3.59835 27.6517C2.89509 26.9484 2.5 25.9946 2.5 25V5ZM6.25 3.75H23.75C24.0815 3.75 24.3995 3.8817 24.6339 4.11612C24.8683 4.35054 25 4.66848 25 5V25C25 25.3315 24.8683 25.6495 24.6339 25.8839C24.3995 26.1183 24.0815 26.25 23.75 26.25H6.25C5.91848 26.25 5.60054 26.1183 5.36612 25.8839C5.1317 25.6495 5 25.3315 5 25V5C5 4.66848 5.1317 4.35054 5.36612 4.11612C5.60054 3.8817 5.91848 3.75 6.25 3.75Z" fill="white"/>
</svg>
