<svg width="30" height="30" viewBox="0 0 30 30" fill="none" xmlns="http://www.w3.org/2000/svg">
<g clip-path="url(#clip0_5_73)">
<path d="M14.9166 14.4167C17.1666 14.4167 18.9166 12.5833 18.9166 10.3333C18.9166 8.08333 17.0833 6.33333 14.8333 6.33333C12.5833 6.33333 10.8333 8.16666 10.8333 10.3333C10.8333 12.5833 12.6666 14.4167 14.9166 14.4167ZM14.8333 8C14.9166 8 14.9166 8 14.8333 8C16.1666 8 17.25 9.08333 17.25 10.4167C17.25 11.75 16.1666 12.75 14.8333 12.75C13.5 12.75 12.5 11.6667 12.5 10.4167C12.5 9.08333 13.5833 8 14.8333 8Z" fill="white"/>
<path d="M27.25 13.9167C25.6667 12.5 23.5833 11.75 21.4167 11.8333H20.75C20.5833 12.5 20.3333 13.0833 20 13.5833C20.5 13.5 20.9167 13.5 21.4167 13.5C23 13.4167 24.5833 13.9167 25.8333 14.8333V20.8333H27.5V14.1667L27.25 13.9167Z" fill="white"/>
<path d="M19.5 6.49999C19.9166 5.49999 21.0833 4.99999 22.1666 5.41666C23.1666 5.83333 23.6666 6.99999 23.25 8.08333C22.9166 8.83333 22.1666 9.33333 21.4166 9.33333C21.25 9.33333 21 9.33333 20.8333 9.25C20.9166 9.66666 20.9166 10.0833 20.9166 10.4167V10.9167C21.0833 10.9167 21.25 11 21.4166 11C23.5 11 25.1666 9.33333 25.1666 7.33333C25.1666 5.24999 23.5 3.58333 21.5 3.58333C20.1666 3.58333 19 4.24999 18.3333 5.41666C18.75 5.66666 19.1666 5.99999 19.5 6.49999Z" fill="white"/>
<path d="M10 13.6667C9.66667 13.1667 9.41667 12.5833 9.25 11.9167H8.58333C6.41667 11.8333 4.33333 12.5833 2.75 13.9167L2.5 14.1667V20.8333H4.16667V14.8333C5.5 13.9167 7 13.4167 8.58333 13.5C9.08333 13.5 9.58333 13.5833 10 13.6667Z" fill="white"/>
<path d="M8.58334 10.9167C8.75001 10.9167 8.91668 10.9167 9.08334 10.8333V10.3333C9.08334 9.91667 9.08334 9.5 9.16668 9.16667C9.00001 9.25 8.75001 9.25 8.58334 9.25C7.50001 9.25 6.58334 8.33333 6.58334 7.25C6.58334 6.16667 7.50001 5.25 8.58334 5.25C9.41668 5.25 10.1667 5.75 10.5 6.5C10.8333 6.08333 11.3333 5.66667 11.75 5.33333C10.6667 3.58333 8.41668 3 6.66668 4.08333C4.91668 5.16667 4.33334 7.41667 5.41668 9.16667C6.08334 10.25 7.25001 10.9167 8.58334 10.9167Z" fill="white"/>
<path d="M21.75 18.9167L21.5833 18.6667C19.9166 16.8333 17.5833 15.75 15.0833 15.8333C12.5833 15.75 10.1666 16.8333 8.49998 18.6667L8.33331 18.9167V25.25C8.33331 26 8.91665 26.6667 9.74998 26.6667H20.4166C21.1666 26.6667 21.8333 26 21.8333 25.25V18.9167H21.75ZM20.0833 25H9.99998V19.5C11.3333 18.1667 13.1666 17.5 15.0833 17.5C16.9166 17.4167 18.75 18.1667 20.0833 19.5V25Z" fill="white"/>
</g>
<defs>
<clipPath id="clip0_5_73">
<rect width="30" height="30" fill="white"/>
</clipPath>
</defs>
</svg>
