<svg width="30" height="30" viewBox="0 0 30 30" fill="none" xmlns="http://www.w3.org/2000/svg">
<g clip-path="url(#clip0_5_115)">
<path d="M24.1875 12.55C23.7676 10.4221 22.622 8.50607 20.9463 7.12906C19.2707 5.75204 17.1689 4.99951 15 5C11.3875 5 8.25 7.05 6.6875 10.05C4.85029 10.2485 3.15126 11.119 1.91686 12.4942C0.682464 13.8693 -0.000214627 15.6521 5.06159e-08 17.5C5.06159e-08 21.6375 3.3625 25 7.5 25H23.75C27.2 25 30 22.2 30 18.75C30 15.45 27.4375 12.775 24.1875 12.55ZM23.75 22.5H7.5C4.7375 22.5 2.5 20.2625 2.5 17.5C2.5 14.7375 4.7375 12.5 7.5 12.5H8.3875C9.2125 9.6125 11.85 7.5 15 7.5C18.8 7.5 21.875 10.575 21.875 14.375V15H23.75C25.825 15 27.5 16.675 27.5 18.75C27.5 20.825 25.825 22.5 23.75 22.5Z" fill="white"/>
</g>
<defs>
<clipPath id="clip0_5_115">
<rect width="30" height="30" fill="white"/>
</clipPath>
</defs>
</svg>
