<svg width="24" height="24" viewBox="0 0 24 24" fill="none" xmlns="http://www.w3.org/2000/svg">
<path d="M23.7188 12C23.72 10.0491 23.2342 8.12884 22.3054 6.41327C21.3766 4.6977 20.0343 3.24114 18.4 2.17571C16.7658 1.11028 14.8915 0.46969 12.947 0.312041C11.0025 0.154392 9.04946 0.484675 7.26495 1.27293C5.48044 2.06119 3.92096 3.28247 2.72794 4.82602C1.53492 6.36956 0.746126 8.18652 0.433096 10.1121C0.120066 12.0377 0.292708 14.0109 0.935363 15.8529C1.57802 17.6948 2.67035 19.3472 4.11328 20.6601C4.14292 20.6971 4.17858 20.7288 4.21875 20.7539C6.36292 22.6639 9.13431 23.7193 12.0059 23.7193C14.8774 23.7193 17.6488 22.6639 19.793 20.7539L19.8867 20.6601C21.0951 19.5645 22.0605 18.2278 22.7205 16.7362C23.3805 15.2445 23.7206 13.6311 23.7188 12ZM1.21875 12C1.21861 10.228 1.65524 8.48328 2.49 6.92022C3.32477 5.35717 4.53193 4.02397 6.00468 3.03858C7.47743 2.05319 9.17036 1.44601 10.9337 1.27075C12.697 1.09549 14.4763 1.35755 16.1142 2.03376C17.7521 2.70997 19.1981 3.77947 20.3242 5.14762C21.4503 6.51578 22.2218 8.14041 22.5705 9.87777C22.9192 11.6151 22.8342 13.4116 22.3232 15.1084C21.8122 16.8051 20.8908 18.3497 19.6406 19.6055C18.4769 17.6559 16.6109 16.226 14.4258 15.6094C15.4406 15.0683 16.2454 14.2036 16.7122 13.1527C17.1791 12.1017 17.2812 10.9248 17.0024 9.80917C16.7236 8.6935 16.0798 7.70305 15.1734 6.9953C14.267 6.28755 13.15 5.90312 12 5.90312C10.85 5.90312 9.73303 6.28755 8.82663 6.9953C7.92023 7.70305 7.27644 8.6935 6.99761 9.80917C6.71878 10.9248 6.82092 12.1017 7.28778 13.1527C7.75465 14.2036 8.55944 15.0683 9.57422 15.6094C7.38912 16.226 5.52308 17.6559 4.35937 19.6055C2.34927 17.5845 1.22025 14.8504 1.21875 12ZM12 15.2812C11.1656 15.2812 10.35 15.0338 9.65619 14.5703C8.96242 14.1067 8.42169 13.4478 8.10238 12.6769C7.78307 11.9061 7.69953 11.0578 7.86231 10.2395C8.02509 9.4211 8.42689 8.66939 9.01689 8.07939C9.6069 7.48938 10.3586 7.08758 11.177 6.9248C11.9953 6.76202 12.8436 6.84557 13.6144 7.16488C14.3853 7.48418 15.0442 8.02491 15.5078 8.71868C15.9713 9.41245 16.2188 10.2281 16.2188 11.0625C16.2188 12.1814 15.7743 13.2544 14.9831 14.0456C14.1919 14.8368 13.1189 15.2812 12 15.2812ZM5.07422 20.25C5.77023 19.027 6.7777 18.01 7.99419 17.3027C9.21067 16.5953 10.5928 16.2226 12 16.2226C13.4072 16.2226 14.7893 16.5953 16.0058 17.3027C17.2223 18.01 18.2298 19.027 18.9258 20.25C16.9878 21.8836 14.5347 22.7795 12 22.7795C9.46533 22.7795 7.01225 21.8836 5.07422 20.25Z" fill="white"/>
</svg>
